<svg id="Layer_1" enable-background="new 0 0 256 256" height="512" viewBox="0 0 256 256" width="512" xmlns="http://www.w3.org/2000/svg"><g><g><path d="m168.621 237.824h-136.188v-39.191c0-16.117 13.066-29.183 29.183-29.183h77.821c16.117 0 29.183 13.066 29.183 29.183v39.191z" fill="#a4c9ff"/></g><g><path d="m100.527 167.514c-9.159 0-17.768-2.273-25.345-6.228v8.163.003c0 13.984 11.336 25.32 25.32 25.32 13.984 0 25.32-11.336 25.32-25.32v-.003-8.139c-7.564 3.939-16.155 6.204-25.295 6.204z" fill="#f9cfcf"/></g><g><path d="m168.621 239.824h-136.187c-1.104 0-2-.896-2-2v-39.192c0-17.194 13.988-31.183 31.183-31.183h11.566v-6.163c0-.699.365-1.348.963-1.71s1.342-.386 1.962-.063c7.629 3.981 15.846 6 24.42 6 8.553 0 16.753-2.011 24.373-5.977.621-.322 1.363-.298 1.961.064.598.363.962 1.011.962 1.71v6.138h11.615c17.194 0 31.183 13.989 31.183 31.183v39.192c-.001 1.105-.896 2.001-2.001 2.001zm-134.187-4h132.188v-37.192c0-14.989-12.194-27.183-27.183-27.183h-13.615c-1.104 0-2-.896-2-2v-4.943c-7.356 3.325-15.178 5.008-23.296 5.008-8.139 0-15.977-1.69-23.345-5.029v4.964c0 1.104-.896 2-2 2h-13.567c-14.989 0-27.183 12.194-27.183 27.183v37.192z" fill="#3762cc"/></g><g><path d="m146.542 33.747c-9.682 0-82.345 0-92.029 0-12.02 0-21.764 9.744-21.764 21.764v38.197c0 33.574 27.217 60.791 60.79 60.791h13.977c33.573 0 60.79-27.217 60.79-60.791v-38.196c0-12.021-9.744-21.765-21.764-21.765z" fill="#4671c6"/></g><g><path d="m107.516 156.5h-13.977c-34.623 0-62.79-28.167-62.79-62.791v-38.197c0-13.104 10.661-23.765 23.764-23.765h92.029c13.104 0 23.764 10.661 23.764 23.765v38.197c0 34.623-28.168 62.791-62.79 62.791zm-53.003-120.753c-10.898 0-19.764 8.866-19.764 19.765v38.197c0 32.417 26.373 58.791 58.79 58.791h13.977c32.417 0 58.79-26.374 58.79-58.791v-38.197c0-10.898-8.866-19.765-19.764-19.765z" fill="#3762cc"/></g><g><path d="m155.075 92.911v-5.108c0-29.854-24.422-54.056-54.548-54.056-30.126 0-54.548 24.202-54.548 54.056v5.108c-9.472-.192-16.986 7.353-16.986 16.475 0 9.739 8.503 17.443 18.427 16.394 5.629 23.916 27.263 41.734 53.107 41.734 25.846 0 47.478-17.82 53.107-41.734 9.911 1.048 18.427-6.641 18.427-16.394 0-9.126-7.52-16.667-16.986-16.475z" fill="#f9cfcf"/></g><g><path d="m128.846 121.793c-4.231 0-7.661-3.43-7.661-7.661v-8.171c0-4.231 3.43-7.661 7.661-7.661 4.231 0 7.661 3.43 7.661 7.661v8.171c0 4.231-3.43 7.661-7.661 7.661z" fill="#3762cc"/></g><g><path d="m72.194 121.793c-4.231 0-7.661-3.43-7.661-7.661v-8.171c0-4.231 3.43-7.661 7.661-7.661 4.231 0 7.661 3.43 7.661 7.661v8.171c0 4.231-3.43 7.661-7.661 7.661z" fill="#3762cc"/></g><g><path d="m100.527 169.514c-25.85 0-48.081-17.037-54.644-41.643-4.672.066-9.272-1.639-12.771-4.787-3.889-3.5-6.12-8.493-6.12-13.699 0-4.983 1.969-9.657 5.544-13.161 3.116-3.054 7.121-4.878 11.442-5.247v-3.174c0-30.91 25.367-56.056 56.548-56.056 31.18 0 56.547 25.146 56.547 56.056v3.174c4.321.369 8.326 2.193 11.443 5.248 3.575 3.503 5.544 8.177 5.544 13.16 0 5.207-2.23 10.199-6.118 13.697-3.499 3.148-8.088 4.845-12.772 4.789-6.562 24.606-28.793 41.643-54.643 41.643zm-53.105-45.735c.918 0 1.731.63 1.945 1.542 5.57 23.665 26.608 40.192 51.16 40.192s45.59-16.528 51.16-40.192c.231-.98 1.151-1.641 2.157-1.531 4.17.442 8.333-.901 11.423-3.681 3.047-2.741 4.794-6.65 4.794-10.724 0-3.899-1.542-7.558-4.344-10.303-2.828-2.771-6.553-4.234-10.603-4.172-.533.01-1.056-.195-1.44-.571s-.6-.891-.6-1.429v-5.108c0-28.704-23.573-52.056-52.547-52.056-28.975 0-52.548 23.353-52.548 52.056v5.108c0 .538-.216 1.052-.6 1.429-.384.375-.91.579-1.44.571-4.006-.063-7.774 1.4-10.602 4.171-2.801 2.745-4.344 6.404-4.344 10.304 0 4.074 1.748 7.983 4.795 10.725 3.088 2.779 7.25 4.12 11.422 3.68.071-.007.142-.011.212-.011z" fill="#3762cc"/></g><g><path d="m121.402 84.296h-94.992v-29.327c0-25.94 21.029-46.969 46.97-46.969h48.022c21.068 0 38.148 17.079 38.148 38.148-.001 21.068-17.08 38.148-38.148 38.148z" fill="#4671c6"/></g><g><path d="m121.402 86.295h-94.992c-1.104 0-2-.896-2-2v-29.326c0-27.002 21.968-48.969 48.97-48.969h48.022c22.137 0 40.147 18.01 40.147 40.148 0 22.137-18.01 40.147-40.147 40.147zm-92.992-4h92.992c19.932 0 36.147-16.216 36.147-36.147 0-19.932-16.216-36.148-36.147-36.148h-48.022c-24.796 0-44.97 20.173-44.97 44.969z" fill="#3762cc"/></g><g><path d="m111.204 140.581h-21.368c-1.104 0-2-.896-2-2s.896-2 2-2h21.368c1.104 0 2 .896 2 2s-.895 2-2 2z" fill="#3762cc"/></g><g><path d="m193.46 219.465-7.651-7.651c1.404-1.086 2.76-2.261 4.047-3.548s2.462-2.644 3.548-4.047l7.651 7.651z" fill="#e0ebfc"/></g><g><path d="m193.459 221.465c-.512 0-1.023-.195-1.414-.586l-7.651-7.65c-.406-.406-.618-.967-.582-1.541.037-.574.318-1.104.772-1.455 1.421-1.1 2.683-2.206 3.857-3.38 1.161-1.161 2.298-2.458 3.381-3.857.352-.454.881-.735 1.455-.772.577-.034 1.135.176 1.541.582l7.651 7.65c.375.375.586.884.586 1.414s-.211 1.039-.586 1.414l-7.595 7.595c-.391.391-.903.586-1.415.586zm-4.668-9.497 4.669 4.668 4.767-4.767-4.669-4.668c-.746.874-1.511 1.704-2.287 2.479-.775.776-1.605 1.541-2.48 2.288z" fill="#3762cc"/></g><g><path d="m189.856 208.266c16.562-16.562 16.501-43.57-.134-60.205-16.636-16.636-43.644-16.696-60.205-.135-16.562 16.562-16.501 43.57.135 60.205 16.635 16.636 43.643 16.697 60.204.135zm-30.106.636c-8.246-.018-15.993-3.235-21.814-9.055-5.819-5.82-9.036-13.565-9.056-21.808-.02-8.25 3.162-15.987 8.962-21.786 11.993-11.993 31.549-11.95 43.594.094 5.819 5.819 9.035 13.564 9.055 21.807.02 8.25-3.162 15.987-8.962 21.786-5.796 5.798-13.531 8.98-21.779 8.962z" fill="#6bdddd"/></g><g><path d="m159.877 222.647c-11.447 0-22.908-4.368-31.641-13.102-17.416-17.416-17.476-45.692-.135-63.033 8.364-8.365 19.51-12.968 31.391-12.968h.103c11.917.026 23.118 4.68 31.54 13.103 8.422 8.422 13.076 19.623 13.102 31.54.027 11.92-4.579 23.105-12.968 31.494-8.644 8.645-20.011 12.966-31.392 12.966zm-.384-85.102c-10.813 0-20.954 4.187-28.563 11.796-15.781 15.782-15.721 41.521.135 57.377s41.596 15.916 57.377.135c7.631-7.631 11.82-17.808 11.796-28.657-.024-10.851-4.261-21.051-11.93-28.72s-17.869-11.906-28.721-11.931c-.031 0-.063 0-.094 0z" fill="#3762cc"/></g><g><path d="m159.75 208.902c-8.246-.018-15.993-3.235-21.814-9.055-5.819-5.82-9.036-13.565-9.056-21.808-.02-8.25 3.162-15.987 8.962-21.786 11.993-11.993 31.549-11.95 43.594.094 5.819 5.819 9.035 13.564 9.055 21.807.02 8.25-3.162 15.987-8.962 21.786-5.796 5.798-13.531 8.98-21.779 8.962z" fill="#e0ebfc"/></g><g><path d="m227.224 245.634c3.155-3.155 3.155-8.27 0-11.425l-22.561-22.561c-.935-.935-2.452-.935-3.387 0l-8.038 8.038c-.935.935-.935 2.452 0 3.387l22.561 22.561c3.155 3.155 8.27 3.155 11.425 0z" fill="#4671c6"/></g><g><path d="m221.511 250c-2.692 0-5.223-1.048-7.126-2.952l-22.561-22.561c-.831-.83-1.288-1.934-1.288-3.107 0-1.174.458-2.278 1.288-3.108l8.038-8.038c1.714-1.713 4.501-1.713 6.215 0l22.561 22.561c3.93 3.93 3.93 10.324 0 14.253-1.904 1.904-4.435 2.952-7.127 2.952zm-18.541-37.053c-.102 0-.203.039-.28.116l-8.038 8.038c-.096.096-.116.205-.116.279s.02.184.116.279l22.561 22.561c2.37 2.37 6.227 2.37 8.597 0s2.37-6.227 0-8.597l-22.56-22.561c-.078-.076-.179-.115-.28-.115z" fill="#3762cc"/></g><g><path d="m159.822 210.902c-.026 0-.051 0-.076 0-8.778-.019-17.026-3.443-23.224-9.641-6.196-6.196-9.62-14.442-9.642-23.217-.021-8.787 3.369-17.028 9.547-23.205 6.162-6.162 14.371-9.553 23.122-9.553h.074c8.776.019 17.024 3.445 23.226 9.647 6.196 6.196 9.62 14.441 9.642 23.216.021 8.787-3.37 17.027-9.548 23.205-6.157 6.159-14.366 9.548-23.121 9.548zm-.271-61.616c-7.684 0-14.888 2.975-20.294 8.381-5.42 5.419-8.394 12.653-8.375 20.367.019 7.711 3.027 14.955 8.47 20.399 5.445 5.444 12.691 8.452 20.404 8.469h.067c7.686 0 14.891-2.973 20.293-8.375 5.42-5.42 8.395-12.653 8.376-20.367-.019-7.71-3.027-14.955-8.47-20.398-5.449-5.449-12.696-8.459-20.407-8.476-.021 0-.043 0-.064 0z" fill="#3762cc"/></g><g><path d="m143.791 167.654c0-1.95.626-3.926 1.878-5.928 1.252-2.001 3.08-3.659 5.482-4.973 2.402-1.313 5.204-1.971 8.407-1.971 2.977 0 5.605.55 7.884 1.648s4.039 2.592 5.281 4.48c1.242 1.889 1.863 3.942 1.863 6.159 0 1.745-.354 3.275-1.063 4.588-.708 1.314-1.55 2.448-2.525 3.403s-2.725 2.562-5.25 4.82c-.698.636-1.258 1.196-1.678 1.678-.421.482-.734.924-.939 1.324s-.365.801-.477 1.201c-.113.4-.283 1.104-.508 2.11-.39 2.135-1.612 3.203-3.665 3.203-1.068 0-1.966-.349-2.695-1.047-.729-.697-1.093-1.734-1.093-3.11 0-1.724.266-3.218.8-4.48.534-1.263 1.242-2.371 2.125-3.326.882-.955 2.073-2.089 3.572-3.403 1.313-1.149 2.264-2.017 2.849-2.602s1.078-1.236 1.478-1.956c.4-.718.601-1.498.601-2.34 0-1.642-.611-3.028-1.833-4.157s-2.797-1.694-4.727-1.694c-2.258 0-3.921.57-4.989 1.709-1.067 1.14-1.971 2.818-2.71 5.035-.698 2.32-2.022 3.48-3.973 3.48-1.15 0-2.12-.405-2.91-1.216-.79-.813-1.185-1.69-1.185-2.635zm15.028 33.752c-1.252 0-2.346-.406-3.28-1.217-.935-.811-1.401-1.945-1.401-3.403 0-1.293.452-2.381 1.355-3.264.903-.882 2.012-1.324 3.326-1.324 1.293 0 2.381.442 3.264 1.324.882.883 1.324 1.971 1.324 3.264 0 1.438-.462 2.567-1.386 3.388s-1.991 1.232-3.202 1.232z" fill="#f9a7a7"/></g></g></svg>