<?xml version="1.0" standalone="no"?>
<!DOCTYPE svg PUBLIC "-//W3C//DTD SVG 20010904//EN"
 "http://www.w3.org/TR/2001/REC-SVG-20010904/DTD/svg10.dtd">
<svg version="1.0" xmlns="http://www.w3.org/2000/svg"
 width="1163.000000pt" height="1279.000000pt" viewBox="0 0 1163.000000 1279.000000"
 preserveAspectRatio="xMidYMid meet">
<metadata>
Created by potrace 1.16, written by Peter Selinger 2001-2019
</metadata>
<g transform="translate(0.000000,1279.000000) scale(0.100000,-0.100000)"
fill="#000000" stroke="none">
<path d="M3380 12479 c-573 -66 -1144 -360 -1527 -789 -351 -392 -566 -866
-623 -1375 -6 -53 -10 -435 -10 -937 l0 -847 24 -28 c24 -28 26 -28 154 -31
l130 -4 4 -286 5 -287 -38 -60 c-88 -140 -134 -270 -148 -425 -25 -273 62
-529 248 -723 112 -117 232 -196 366 -241 46 -15 55 -24 112 -109 85 -127 219
-292 334 -412 66 -68 111 -127 144 -185 242 -428 594 -786 1023 -1039 l72 -43
0 -118 0 -118 -392 -4 c-389 -4 -394 -4 -513 -32 -149 -35 -233 -65 -359 -128
-127 -64 -243 -141 -337 -225 -260 -233 -419 -504 -501 -855 -22 -92 -22 -104
-25 -1198 -3 -764 0 -1112 7 -1130 6 -14 21 -32 33 -40 19 -13 450 -15 3441
-18 2353 -1 3431 1 3457 8 75 21 74 10 77 492 l3 427 42 11 c182 48 459 171
614 273 l81 54 124 -124 123 -123 0 -78 c0 -66 4 -84 27 -122 15 -25 285 -303
620 -636 620 -618 637 -633 757 -668 79 -23 222 -21 304 4 157 49 285 181 332
344 13 46 16 84 13 165 -6 122 -27 185 -96 280 -23 31 -304 318 -624 638 -577
576 -584 582 -641 598 -39 11 -74 15 -105 10 l-47 -6 -128 123 -129 123 51 77
c169 256 289 578 336 903 24 163 24 457 0 620 -62 427 -229 803 -503 1133
-195 235 -435 424 -722 566 -315 156 -620 228 -975 230 l-181 1 89 120 c49 66
99 137 110 157 13 21 32 40 47 43 14 4 62 24 106 44 512 240 697 858 400 1335
l-47 75 1 1104 c0 707 -3 1131 -10 1178 -29 210 -110 406 -235 569 -50 64
-176 191 -221 222 -28 19 -38 39 -73 149 -70 218 -200 455 -348 639 -78 97
-256 268 -356 343 -242 182 -540 312 -857 373 -89 18 -180 19 -1530 20 -789 1
-1469 -2 -1510 -7z m4204 -3474 c53 -226 76 -450 76 -746 0 -153 1 -157 25
-181 21 -22 37 -26 115 -32 175 -13 313 -65 436 -164 302 -244 355 -689 119
-1001 -138 -181 -350 -283 -597 -285 -142 -1 -157 -10 -182 -114 -23 -91 -82
-270 -120 -361 l-32 -76 -89 -28 c-371 -116 -658 -289 -926 -556 -214 -214
-375 -455 -485 -726 l-32 -80 -105 -32 c-616 -187 -1314 -134 -1902 146 -683
325 -1197 936 -1390 1651 -30 109 -50 156 -74 166 -9 4 -68 8 -131 10 -222 4
-375 68 -526 218 -77 77 -98 106 -138 186 -55 112 -76 201 -76 326 0 257 139
493 371 627 76 45 187 77 299 88 58 6 115 15 128 20 42 17 52 63 52 248 l0
171 1958 3 c1797 3 1964 5 2042 20 433 87 780 264 1060 538 47 46 88 82 91 79
4 -3 18 -54 33 -115z m636 -3106 c926 -114 1653 -835 1775 -1757 17 -131 20
-380 5 -502 -104 -838 -697 -1515 -1506 -1721 -306 -77 -658 -80 -967 -8 -640
150 -1175 609 -1423 1221 -99 247 -145 486 -145 763 0 324 59 587 197 873 103
215 204 361 369 531 313 323 710 527 1160 595 109 17 419 20 535 5z m-4231
-1389 c371 -146 790 -213 1193 -190 213 13 318 28 521 77 59 14 110 24 112 21
3 -2 -4 -50 -15 -105 -92 -478 -19 -998 201 -1430 352 -689 1019 -1140 1799
-1214 120 -11 341 -8 473 7 l57 7 0 -342 0 -341 -3305 0 -3305 0 0 976 c0
1097 0 1095 71 1309 70 209 173 376 330 534 194 194 418 314 704 377 67 15
150 19 527 23 l448 6 27 28 c28 27 28 30 31 168 3 103 7 139 15 135 7 -3 59
-23 116 -46z m5811 -2195 l115 -115 -123 -123 -122 -122 -115 116 -116 115
118 121 c65 66 120 121 123 122 3 0 57 -51 120 -114z"/>
<path d="M3510 7861 c-107 -34 -196 -111 -244 -211 l-31 -65 0 -300 0 -300 26
-55 c75 -158 250 -252 411 -220 153 30 261 127 303 273 14 48 16 99 13 330
l-3 272 -31 65 c-68 141 -194 221 -348 219 -39 0 -82 -4 -96 -8z"/>
<path d="M6333 7856 c-107 -35 -204 -124 -245 -224 -22 -55 -23 -67 -23 -347
l0 -290 32 -67 c56 -118 153 -193 286 -219 157 -32 332 63 405 219 l27 57 0
305 0 305 -29 60 c-38 76 -106 144 -181 180 -49 23 -76 29 -145 32 -53 2 -101
-2 -127 -11z"/>
<path d="M4455 5951 c-78 -32 -78 -144 0 -177 30 -12 117 -14 590 -12 l555 3
27 27 c41 41 39 100 -5 139 l-32 29 -558 -1 c-306 0 -566 -4 -577 -8z"/>
<path d="M7727 5505 c-357 -58 -659 -214 -912 -470 -222 -225 -367 -495 -437
-815 -20 -91 -23 -134 -23 -325 0 -250 10 -319 76 -520 185 -567 671 -991
1264 -1101 153 -29 472 -27 617 4 585 123 1045 531 1227 1089 62 190 76 286
75 523 0 174 -3 221 -23 310 -141 658 -629 1150 -1279 1291 -128 28 -453 35
-585 14z m506 -200 c409 -72 769 -321 990 -686 84 -137 148 -312 183 -494 24
-122 23 -366 0 -494 -100 -549 -497 -987 -1026 -1134 -144 -40 -230 -51 -395
-51 -397 1 -734 142 -1015 424 -214 213 -338 442 -401 740 -30 140 -32 398 -5
540 57 296 189 544 400 756 243 242 523 375 886 418 66 8 295 -3 383 -19z"/>
</g>
</svg>
